{"asset":{"generator":"Khronos glTF Blender I/O v5.2.39","version":"2.0"},"extensionsUsed":["KHR_materials_emissive_strength"],"scene":0,"scenes":[{"name":"Scene","nodes":[0,1,2,3,4,5,6,7,8,9]}],"nodes":[{"mesh":0,"name":"Cylinder","rotation":[0,-0.3826834261417389,0,0.9238795638084412],"scale":[0.5000199675559998,0.9988537430763245,0.5000199675559998]},{"mesh":1,"name":"Cylinder.001","scale":[0.44697558879852295,0.10442083328962326,0.44697558879852295],"translation":[0,0.9414810538291931,0]},{"mesh":2,"name":"Cylinder.002","rotation":[0,-0.3826834261417389,0,0.9238795638084412],"scale":[0.5293004512786865,0.9988537430763245,0.16548961400985718]},{"mesh":3,"name":"Cylinder.003","rotation":[0,0.3826834261417389,0,0.9238795638084412],"scale":[0.5293004512786865,0.9988537430763245,0.16548961400985718]},{"mesh":4,"name":"Cylinder.006","rotation":[0,0,1,4.371138828673793e-8],"scale":[0.5390850901603699,0.10442083328962326,0.5390850901603699],"translation":[0,-1.0972014665603638,0]},{"mesh":5,"name":"Cylinder.007","scale":[0.5390850901603699,0.05229690670967102,0.5390850901603699],"translation":[0,-1.3371320962905884,0]},{"mesh":6,"name":"Cylinder.008","scale":[0.19901899993419647,0.16019898653030396,0.19901899993419647],"translation":[0,-1.0465599298477173,0]},{"mesh":7,"name":"Sphere","scale":[0.39648258686065674,0.39648258686065674,0.39648258686065674],"translation":[0,0.7014613747596741,0]},{"mesh":8,"name":"Torus","scale":[0.4617060422897339,0.4617060422897339,0.4617060422897339],"translation":[0,0.7611258625984192,0]},{"mesh":9,"name":"Torus.001","rotation":[0,0,-0.7071068286895752,0.7071068286895752],"scale":[0.19729354977607727,0.31795454025268555,0.19729354977607727],"translation":[0,1.10117506980896,0]}],"materials":[{"doubleSided":true,"emissiveFactor":[1,0.9829933643341064,0.34778666496276855],"extensions":{"KHR_materials_emissive_strength":{"emissiveStrength":2.1999998092651367}},"name":"Material.001","pbrMetallicRoughness":{"baseColorFactor":[0,0,0,1]}},{"doubleSided":true,"name":"Material.009","pbrMetallicRoughness":{"baseColorFactor":[0.8002356290817261,0.01996704563498497,0.01907031424343586,1],"roughnessFactor":0.5}},{"doubleSided":true,"name":"Material.016","pbrMetallicRoughness":{"baseColorFactor":[0.8000473976135254,0.1282234489917755,0.14208225905895233,1],"roughnessFactor":0.5}},{"doubleSided":true,"name":"Material.014","pbrMetallicRoughness":{"baseColorFactor":[0.8000473976135254,0.1282234489917755,0.14208225905895233,1],"roughnessFactor":0.5}},{"doubleSided":true,"name":"Material.012","pbrMetallicRoughness":{"baseColorFactor":[0.8000229597091675,0.2024727463722229,0.19210733473300934,1],"roughnessFactor":0.5}},{"doubleSided":true,"name":"Material.017","pbrMetallicRoughness":{"baseColorFactor":[0.8001489639282227,0.07671491801738739,0.0708732157945633,1],"roughnessFactor":0.5}},{"doubleSided":true,"name":"Material.018","pbrMetallicRoughness":{"baseColorFactor":[0.800000011920929,0.800000011920929,0.800000011920929,1],"metallicFactor":0,"roughnessFactor":0.5}},{"doubleSided":true,"name":"Material.010","pbrMetallicRoughness":{"baseColorFactor":[0.284794420003891,0.020017549395561218,0.018345903605222702,1],"metallicFactor":0,"roughnessFactor":0.5}},{"doubleSided":true,"name":"Material.008","pbrMetallicRoughness":{"baseColorFactor":[0.8004740476608276,0.06389354914426804,0.04893474280834198,1],"roughnessFactor":0.5}},{"doubleSided":true,"name":"Material.011","pbrMetallicRoughness":{"baseColorFactor":[0.2749977111816406,0.05296109989285469,0.04625948518514633,1],"metallicFactor":0,"roughnessFactor":0.5}}],"meshes":[{"name":"Cylinder","primitives":[{"attributes":{"POSITION":0,"NORMAL":1,"TEXCOORD_0":2},"indices":3,"material":0}]},{"name":"Cylinder.001","primitives":[{"attributes":{"POSITION":4,"NORMAL":5,"TEXCOORD_0":6},"indices":7,"material":1}]},{"name":"Cylinder.016","primitives":[{"attributes":{"POSITION":8,"NORMAL":9,"TEXCOORD_0":10},"indices":11,"material":2},{"attributes":{"POSITION":12,"NORMAL":13,"TEXCOORD_0":14},"indices":15,"material":2}]},{"name":"Cylinder.014","primitives":[{"attributes":{"POSITION":16,"NORMAL":17,"TEXCOORD_0":18},"indices":11,"material":3},{"attributes":{"POSITION":19,"NORMAL":20,"TEXCOORD_0":21},"indices":15,"material":3}]},{"name":"Cylinder.007","primitives":[{"attributes":{"POSITION":22,"NORMAL":23,"TEXCOORD_0":24},"indices":7,"material":4}]},{"name":"Cylinder.008","primitives":[{"attributes":{"POSITION":25,"NORMAL":26,"TEXCOORD_0":27},"indices":7,"material":5}]},{"name":"Cylinder.009","primitives":[{"attributes":{"POSITION":28,"NORMAL":29,"TEXCOORD_0":30},"indices":7,"material":6}]},{"name":"Sphere","primitives":[{"attributes":{"POSITION":31,"NORMAL":32,"TEXCOORD_0":33},"indices":34,"material":7}]},{"name":"Torus","primitives":[{"attributes":{"POSITION":35,"NORMAL":36,"TEXCOORD_0":37},"indices":38,"material":8}]},{"name":"Torus.001","primitives":[{"attributes":{"POSITION":39,"NORMAL":40,"TEXCOORD_0":41},"indices":38,"material":9}]}],"accessors":[{"bufferView":0,"componentType":5126,"count":5184,"max":[1.180952548980713,0.8614926338195801,1.180952548980713],"min":[-1.180952548980713,-1,-1.180952548980713],"type":"VEC3"},{"bufferView":1,"componentType":5126,"count":5184,"type":"VEC3"},{"bufferView":2,"componentType":5126,"count":5184,"type":"VEC2"},{"bufferView":3,"componentType":5123,"count":13812,"type":"SCALAR"},{"bufferView":4,"componentType":5126,"count":192,"max":[1,1,1],"min":[-1,-1,-1],"type":"VEC3"},{"bufferView":5,"componentType":5126,"count":192,"type":"VEC3"},{"bufferView":6,"componentType":5126,"count":192,"type":"VEC2"},{"bufferView":7,"componentType":5123,"count":372,"type":"SCALAR"},{"bufferView":8,"componentType":5126,"count":1254,"max":[1.1809524297714233,0.8614925742149353,0.4128611087799072],"min":[-1.1809524297714233,-0.9999999403953552,-0.4128611087799072],"type":"VEC3"},{"bufferView":9,"componentType":5126,"count":1254,"type":"VEC3"},{"bufferView":10,"componentType":5126,"count":1254,"type":"VEC2"},{"bufferView":11,"componentType":5123,"count":3336,"type":"SCALAR"},{"bufferView":12,"componentType":5126,"count":384,"max":[1.115623116493225,0.8614925742149353,0.4128611087799072],"min":[-1.115623116493225,-0.9999999403953552,-0.4128611087799072],"type":"VEC3"},{"bufferView":13,"componentType":5126,"count":384,"type":"VEC3"},{"bufferView":14,"componentType":5126,"count":384,"type":"VEC2"},{"bufferView":15,"componentType":5123,"count":960,"type":"SCALAR"},{"bufferView":16,"componentType":5126,"count":1254,"max":[1.1809524297714233,0.8614925742149353,0.4128611087799072],"min":[-1.1809524297714233,-0.9999999403953552,-0.4128611087799072],"type":"VEC3"},{"bufferView":17,"componentType":5126,"count":1254,"type":"VEC3"},{"bufferView":18,"componentType":5126,"count":1254,"type":"VEC2"},{"bufferView":19,"componentType":5126,"count":384,"max":[1.115623116493225,0.8614925742149353,0.4128611087799072],"min":[-1.115623116493225,-0.9999999403953552,-0.4128611087799072],"type":"VEC3"},{"bufferView":20,"componentType":5126,"count":384,"type":"VEC3"},{"bufferView":21,"componentType":5126,"count":384,"type":"VEC2"},{"bufferView":22,"componentType":5126,"count":192,"max":[1,2.5118913650512695,1],"min":[-1,-1,-1],"type":"VEC3"},{"bufferView":23,"componentType":5126,"count":192,"type":"VEC3"},{"bufferView":24,"componentType":5126,"count":192,"type":"VEC2"},{"bufferView":25,"componentType":5126,"count":192,"max":[1,2.5118913650512695,1],"min":[-1,-1,-1],"type":"VEC3"},{"bufferView":26,"componentType":5126,"count":192,"type":"VEC3"},{"bufferView":27,"componentType":5126,"count":192,"type":"VEC2"},{"bufferView":28,"componentType":5126,"count":192,"max":[1,1,1],"min":[-1,-1,-1],"type":"VEC3"},{"bufferView":29,"componentType":5126,"count":192,"type":"VEC3"},{"bufferView":30,"componentType":5126,"count":192,"type":"VEC2"},{"bufferView":31,"componentType":5126,"count":1984,"max":[0.9999997019767761,1,0.9999993443489075],"min":[-0.9999990463256836,-1,-1],"type":"VEC3"},{"bufferView":32,"componentType":5126,"count":1984,"type":"VEC3"},{"bufferView":33,"componentType":5126,"count":1984,"type":"VEC2"},{"bufferView":34,"componentType":5123,"count":2880,"type":"SCALAR"},{"bufferView":35,"componentType":5126,"count":2304,"max":[1.25,0.25,1.25],"min":[-1.25,-0.25,-1.25],"type":"VEC3"},{"bufferView":36,"componentType":5126,"count":2304,"type":"VEC3"},{"bufferView":37,"componentType":5126,"count":2304,"type":"VEC2"},{"bufferView":38,"componentType":5123,"count":3456,"type":"SCALAR"},{"bufferView":39,"componentType":5126,"count":2304,"max":[1.25,0.25,1.25],"min":[-1.25,-0.25,-1.25],"type":"VEC3"},{"bufferView":40,"componentType":5126,"count":2304,"type":"VEC3"},{"bufferView":41,"componentType":5126,"count":2304,"type":"VEC2"}],"bufferViews":[{"buffer":0,"byteLength":62208,"byteOffset":0,"target":34962},{"buffer":0,"byteLength":62208,"byteOffset":62208,"target":34962},{"buffer":0,"byteLength":41472,"byteOffset":124416,"target":34962},{"buffer":0,"byteLength":27624,"byteOffset":165888,"target":34963},{"buffer":0,"byteLength":2304,"byteOffset":193512,"target":34962},{"buffer":0,"byteLength":2304,"byteOffset":195816,"target":34962},{"buffer":0,"byteLength":1536,"byteOffset":198120,"target":34962},{"buffer":0,"byteLength":744,"byteOffset":199656,"target":34963},{"buffer":0,"byteLength":15048,"byteOffset":200400,"target":34962},{"buffer":0,"byteLength":15048,"byteOffset":215448,"target":34962},{"buffer":0,"byteLength":10032,"byteOffset":230496,"target":34962},{"buffer":0,"byteLength":6672,"byteOffset":240528,"target":34963},{"buffer":0,"byteLength":4608,"byteOffset":247200,"target":34962},{"buffer":0,"byteLength":4608,"byteOffset":251808,"target":34962},{"buffer":0,"byteLength":3072,"byteOffset":256416,"target":34962},{"buffer":0,"byteLength":1920,"byteOffset":259488,"target":34963},{"buffer":0,"byteLength":15048,"byteOffset":261408,"target":34962},{"buffer":0,"byteLength":15048,"byteOffset":276456,"target":34962},{"buffer":0,"byteLength":10032,"byteOffset":291504,"target":34962},{"buffer":0,"byteLength":4608,"byteOffset":301536,"target":34962},{"buffer":0,"byteLength":4608,"byteOffset":306144,"target":34962},{"buffer":0,"byteLength":3072,"byteOffset":310752,"target":34962},{"buffer":0,"byteLength":2304,"byteOffset":313824,"target":34962},{"buffer":0,"byteLength":2304,"byteOffset":316128,"target":34962},{"buffer":0,"byteLength":1536,"byteOffset":318432,"target":34962},{"buffer":0,"byteLength":2304,"byteOffset":319968,"target":34962},{"buffer":0,"byteLength":2304,"byteOffset":322272,"target":34962},{"buffer":0,"byteLength":1536,"byteOffset":324576,"target":34962},{"buffer":0,"byteLength":2304,"byteOffset":326112,"target":34962},{"buffer":0,"byteLength":2304,"byteOffset":328416,"target":34962},{"buffer":0,"byteLength":1536,"byteOffset":330720,"target":34962},{"buffer":0,"byteLength":23808,"byteOffset":332256,"target":34962},{"buffer":0,"byteLength":23808,"byteOffset":356064,"target":34962},{"buffer":0,"byteLength":15872,"byteOffset":379872,"target":34962},{"buffer":0,"byteLength":5760,"byteOffset":395744,"target":34963},{"buffer":0,"byteLength":27648,"byteOffset":401504,"target":34962},{"buffer":0,"byteLength":27648,"byteOffset":429152,"target":34962},{"buffer":0,"byteLength":18432,"byteOffset":456800,"target":34962},{"buffer":0,"byteLength":6912,"byteOffset":475232,"target":34963},{"buffer":0,"byteLength":27648,"byteOffset":482144,"target":34962},{"buffer":0,"byteLength":27648,"byteOffset":509792,"target":34962},{"buffer":0,"byteLength":18432,"byteOffset":537440,"target":34962}],"buffers":[{"byteLength":555872,"uri":"data:application/octet-stream;base64,"}]}