{"asset":{"generator":"Khronos glTF Blender I/O v5.2.39","version":"2.0"},"scene":0,"scenes":[{"name":"Scene","nodes":[0,1,2,3]}],"nodes":[{"mesh":0,"name":"Sphere","scale":[1,0.8245128989219666,1]},{"mesh":1,"name":"Torus","rotation":[0.698434591293335,0.11040448397397995,0.11040448397397995,0.6984345316886902],"scale":[0.6925942301750183,0.6925942301750183,0.5596508383750916],"translation":[-0.34110990166664124,0.5368514060974121,0]},{"mesh":2,"name":"Torus.002","rotation":[0.7071068286895752,0,0,0.7071068286895752],"scale":[0.5902664661407471,0.7379255890846252,0.7315996885299683],"translation":[0.8076027631759644,0.8298410177230835,0]},{"mesh":3,"name":"Torus.003","scale":[0.8509328365325928,0.8509328365325928,0.8509328365325928],"translation":[0,-0.1627071052789688,0]}],"materials":[{"doubleSided":true,"name":"Material.001","pbrMetallicRoughness":{"baseColorFactor":[0.8003851175308228,0.0015172137646004558,0,1],"roughnessFactor":0.5}},{"doubleSided":true,"name":"Material.003","pbrMetallicRoughness":{"baseColorFactor":[0.1878184676170349,0.0006143497885204852,0,1],"roughnessFactor":0.5}},{"doubleSided":true,"name":"Material.002","pbrMetallicRoughness":{"baseColorFactor":[0.19966840744018555,0.0009896665578708053,0,1],"roughnessFactor":0.5}},{"doubleSided":true,"name":"Material.004","pbrMetallicRoughness":{"baseColorFactor":[0.8003629446029663,0.39556947350502014,0,1],"roughnessFactor":0.5}}],"meshes":[{"name":"Sphere","primitives":[{"attributes":{"POSITION":0,"NORMAL":1,"TEXCOORD_0":2},"indices":3,"material":0}]},{"name":"Torus","primitives":[{"attributes":{"POSITION":4,"NORMAL":5,"TEXCOORD_0":6},"indices":7,"material":1}]},{"name":"Torus.002","primitives":[{"attributes":{"POSITION":8,"NORMAL":9,"TEXCOORD_0":10},"indices":11,"material":2}]},{"name":"Torus.003","primitives":[{"attributes":{"POSITION":12,"NORMAL":13,"TEXCOORD_0":14},"indices":7,"material":3}]}],"accessors":[{"bufferView":0,"componentType":5126,"count":1408,"max":[0.9999997019767761,1,0.9999993443489075],"min":[-0.9999990463256836,-0.41543376445770264,-1],"type":"VEC3"},{"bufferView":1,"componentType":5126,"count":1408,"type":"VEC3"},{"bufferView":2,"componentType":5126,"count":1408,"type":"VEC2"},{"bufferView":3,"componentType":5123,"count":2106,"type":"SCALAR"},{"bufferView":4,"componentType":5126,"count":2304,"max":[1.25,0.25,1.25],"min":[-1.25,-0.25,-1.25],"type":"VEC3"},{"bufferView":5,"componentType":5126,"count":2304,"type":"VEC3"},{"bufferView":6,"componentType":5126,"count":2304,"type":"VEC2"},{"bufferView":7,"componentType":5123,"count":3456,"type":"SCALAR"},{"bufferView":8,"componentType":5126,"count":696,"max":[1.4482005834579468,0.26805198192596436,1.25],"min":[-0.034150660037994385,-0.26805198192596436,-0.13650470972061157],"type":"VEC3"},{"bufferView":9,"componentType":5126,"count":696,"type":"VEC3"},{"bufferView":10,"componentType":5126,"count":696,"type":"VEC2"},{"bufferView":11,"componentType":5123,"count":1068,"type":"SCALAR"},{"bufferView":12,"componentType":5126,"count":2304,"max":[1.25,0.25,1.25],"min":[-1.25,-0.25,-1.25],"type":"VEC3"},{"bufferView":13,"componentType":5126,"count":2304,"type":"VEC3"},{"bufferView":14,"componentType":5126,"count":2304,"type":"VEC2"}],"bufferViews":[{"buffer":0,"byteLength":16896,"byteOffset":0,"target":34962},{"buffer":0,"byteLength":16896,"byteOffset":16896,"target":34962},{"buffer":0,"byteLength":11264,"byteOffset":33792,"target":34962},{"buffer":0,"byteLength":4212,"byteOffset":45056,"target":34963},{"buffer":0,"byteLength":27648,"byteOffset":49268,"target":34962},{"buffer":0,"byteLength":27648,"byteOffset":76916,"target":34962},{"buffer":0,"byteLength":18432,"byteOffset":104564,"target":34962},{"buffer":0,"byteLength":6912,"byteOffset":122996,"target":34963},{"buffer":0,"byteLength":8352,"byteOffset":129908,"target":34962},{"buffer":0,"byteLength":8352,"byteOffset":138260,"target":34962},{"buffer":0,"byteLength":5568,"byteOffset":146612,"target":34962},{"buffer":0,"byteLength":2136,"byteOffset":152180,"target":34963},{"buffer":0,"byteLength":27648,"byteOffset":154316,"target":34962},{"buffer":0,"byteLength":27648,"byteOffset":181964,"target":34962},{"buffer":0,"byteLength":18432,"byteOffset":209612,"target":34962}],"buffers":[{"byteLength":228044,"uri":"data:application/octet-stream;base64,"}]}